<?xml version="1.0" encoding="UTF-8"?><svg id="_レイヤー_1" xmlns="http://www.w3.org/2000/svg" viewBox="0 0 1313.4 1452.26"><defs><style>.cls-1{fill:#fff;}</style></defs><path class="cls-1" d="M1017.79,234.35c12.06-2.11,16.88-7.84,21.7-7.84,10.25,0,30.74,14.17,30.74,22,0,6.63-11.75,12.06-18.69,24.11-35.57,60.88-71.43,103.99-141.66,142.26-5.42,2.71-6.93-1.81-3.01-4.82,64.5-46.12,106.7-100.37,128.4-153.11,4.52-10.55,3.62-11.45-8.44-10.55-16.58,1.51-64.2,9.34-81.08,12.96-15.97,3.62-27.13,7.84-34.36,7.84-9.34,0-25.02-15.07-25.02-27.73,0-4.82.6-5.12,4.82-2.41,7.23,4.52,13.86,8.44,23.81,8.44,18.39,0,75.96-7.23,102.78-11.15ZM1060.89,199.39c-5.12-3.62-4.82-5.12,1.51-4.22,14.77,1.81,24.41,7.23,31.95,14.17,6.33,6.03,9.04,11.75,9.04,17.78,0,4.82-2.71,8.44-7.54,8.14-6.03-.3-7.23-6.03-14.17-15.07-5.12-6.33-10.85-13.56-20.8-20.8ZM1088.01,176.78c-6.33-3.62-6.03-4.82,1.21-4.82,14.17.3,24.72,4.52,33.16,10.85,6.93,5.12,10.85,11.45,10.85,16.88,0,6.03-2.71,8.74-6.33,8.74-5.43,0-8.74-4.22-15.67-12.66-5.42-6.93-12.96-13.56-23.21-18.99Z"/><path class="cls-1" d="M902.35,500.8c6.33,3.01,12.66,5.12,23.81,5.12,18.39,0,73.84-9.65,93.74-13.26,11.45-2.11,19.29-8.44,25.32-8.44,8.44,0,27.73,10.85,27.73,18.39,0,6.03-11.15,10.85-20.19,24.72-31.95,48.23-69.93,91.02-136.24,119.36-5.73,2.41-8.14-2.41-3.01-5.43,60.88-36.47,103.38-84.09,125.69-131.71,2.71-5.73,1.51-6.93-3.92-6.33-14.47,1.51-68.12,11.75-82.89,14.77-4.82,1.21-25.32,6.63-32.85,6.63-9.34,0-20.8-12.36-20.8-21.7,0-3.01.3-3.62,3.62-2.11ZM986.74,454.39c-7.54.9-28.33,4.22-39.18,4.22-8.44,0-21.4-10.55-21.4-19.29,0-3.32.6-3.32,3.62-2.11,5.12,1.81,10.55,5.12,20.19,5.12,14.47,0,38.28-3.32,50.94-6.03,14.17-2.71,19.59-6.93,25.62-6.93,11.45,0,19.29,4.82,19.29,9.34,0,3.62-3.92,6.33-10.55,7.54-13.87,2.41-34.06,5.73-48.53,8.14Z"/><path class="cls-1" d="M940.93,669.46c22,7.23,37.68,23.51,37.68,36.47,0,7.23-3.92,11.15-9.64,11.15-4.52,0-6.63-1.51-9.04-7.23-5.43-12.96-13.26-27.43-22.3-36.47-3.32-3.32-1.51-5.43,3.32-3.92ZM963.53,802.08c51.54-31.95,88.61-83.79,106.4-128.4,2.71-6.93,1.81-8.44-3.62-12.36-3.62-2.41-6.33-4.82-6.33-6.63,0-2.11,5.12-4.82,10.25-4.82,8.44,0,25.02,8.44,25.02,14.77,0,3.32-2.11,6.63-4.52,11.15-1.21,2.11-2.71,4.82-4.22,7.84-25.92,51.54-62.09,97.05-119.96,123.88-4.52,1.81-7.84-2.41-3.01-5.43ZM989.45,648.36c19.89,6.33,34.96,22.61,34.96,35.87,0,7.23-3.62,11.45-9.04,11.45-4.22,0-7.54-.9-9.95-7.84-3.32-10.85-11.75-25.32-19.29-35.26-2.41-3.32-.9-5.73,3.32-4.22Z"/><path class="cls-1" d="M1041.9,879.68c3.32-6.93,2.71-7.84-3.62-7.84-10.55,0-28.03,3.62-35.87,5.43-3.32.6-14.77,3.92-18.08,3.92s-6.93-2.41-10.55-5.73c-18.69,22.91-51.54,50.94-84.09,66.91-4.52,2.11-6.03,0-1.81-3.01,31.04-23.21,74.15-67.52,86.2-96.15,2.71-6.03,1.81-8.74-3.92-13.56-4.22-3.62-6.93-5.43-6.93-6.93,0-1.81,3.92-3.32,7.23-3.32,12.66,0,32.25,8.74,32.25,15.07,0,3.62-5.43,8.44-12.06,17.78-2.41,3.62-5.12,7.54-8.44,12.36,2.11,0,4.22.3,6.03.3,8.14,0,30.44-1.81,42.5-3.62,9.34-1.21,15.67-6.93,20.19-6.93,8.74.3,23.51,10.25,23.51,17.18,0,6.33-11.15,12.06-18.99,24.41-39.18,61.19-91.33,114.53-159.44,147.39-4.22,2.11-6.03-.6-1.81-3.32,56.66-38.28,119.96-101.27,147.69-160.35Z"/><path class="cls-1" d="M525.63,276.89c24.11.6,55.46,13.26,55.76,33.76,0,6.33-3.32,10.25-9.04,9.95-4.82-.3-7.54-3.32-12.96-9.34-9.34-10.25-22.61-21.7-35.26-30.14-4.22-3.01-3.62-4.52,1.51-4.22ZM743.85,250.67c-33.76,54.86-90.72,111.22-149.2,151-9.95,6.93-18.99,12.96-26.83,12.96-12.36,0-28.63-12.36-31.35-28.63-.6-5.43,1.51-6.63,5.12-4.22,4.52,3.01,9.34,6.33,14.47,8.44,7.23,3.32,13.56,3.32,25.02-3.01,49.43-27.43,117.55-89.52,158.54-139.55,3.62-4.52,7.54-2.41,4.22,3.01ZM566.32,222.64c23.21,0,55.76,11.15,56.66,31.65.3,6.33-3.01,10.85-9.04,10.85-4.82,0-7.54-3.01-13.26-8.74-9.95-10.55-22.61-21.1-35.87-29.24-4.22-2.71-3.62-4.52,1.51-4.52ZM678.44,206.66c-5.12-3.92-4.82-5.43,1.51-4.52,14.77,2.11,24.41,7.54,31.95,14.17,6.33,6.03,9.04,11.75,9.04,18.08,0,4.82-2.71,8.14-7.54,8.14-6.03-.3-7.23-6.03-14.17-15.07-4.82-6.63-10.85-13.86-20.8-20.8ZM705.57,183.75c-6.33-3.32-6.03-4.82,1.21-4.52,14.17.3,24.72,4.52,33.16,10.85,6.93,5.12,10.85,11.15,10.85,16.88s-2.41,8.74-6.33,8.74c-5.42,0-8.74-4.22-15.67-12.96-5.42-6.93-12.66-13.56-23.21-18.99Z"/><path class="cls-1" d="M600.68,488.15c5.42,0,26.22-4.82,48.53-10.55-2.41-9.04-6.33-21.7-8.14-26.52-2.71-7.54-3.32-8.74-10.25-11.45-6.93-2.41-9.65-3.62-9.65-5.73,0-3.01,5.73-6.63,13.56-6.63,9.04,0,23.81,2.41,24.72,8.74.3,3.01.3,6.03,0,9.04,0,3.32-.3,6.63.3,9.65.6,5.43,1.81,12.06,3.32,19.29,20.8-5.43,40.69-11.15,48.53-13.56,5.42-1.81,9.64-3.62,12.66-4.82,4.22-1.51,6.93-2.71,9.34-2.71,7.54,0,24.11,9.65,24.11,17.48,0,3.01-2.71,4.82-5.73,6.63-2.41,1.51-5.42,3.62-8.44,6.63-8.44,9.04-27.13,25.62-39.18,34.36-6.33,4.22-9.04.3-4.22-5.12,8.44-9.34,21.1-26.52,25.92-34.96q5.43-9.34-4.82-6.93c-10.85,2.11-33.76,9.04-55.46,15.67,5.73,24.72,13.56,54.86,17.78,68.12,2.41,6.93,9.65,28.94,9.65,32.85.3,5.43-2.41,8.14-7.54,8.44-5.73,0-10.85-5.43-13.26-14.77-1.21-3.62-1.81-9.65-2.71-15.07-.3-3.01-.9-6.03-1.21-8.14-2.41-13.56-9.64-43.7-15.67-67.21-12.96,3.92-24.11,7.84-30.44,9.95-2.11.9-4.22,1.81-6.33,2.71-5.73,2.41-10.55,4.22-16.28,4.22-7.84,0-21.4-11.15-21.4-21.7,0-3.62,1.51-4.22,4.82-2.71,7.23,3.62,10.25,4.82,17.48,4.82Z"/><path class="cls-1" d="M588.62,653.48c22,7.23,37.68,23.51,37.68,36.47,0,7.23-3.92,11.15-9.64,11.15-4.52,0-6.63-1.51-9.04-7.23-5.43-12.96-13.26-27.43-22.3-36.47-3.32-3.32-1.51-5.43,3.32-3.92ZM611.23,786.1c51.54-31.95,88.61-83.79,106.4-128.4,2.71-6.93,1.81-8.44-3.62-12.36-3.62-2.41-6.33-4.82-6.33-6.63,0-2.11,5.12-4.82,10.25-4.82,8.44,0,25.02,8.44,25.02,14.77,0,3.32-2.11,6.63-4.52,11.15-1.21,2.11-2.71,4.82-4.22,7.84-25.92,51.54-62.09,97.05-119.96,123.88-4.52,1.81-7.84-2.41-3.01-5.43ZM637.15,632.39c19.89,6.33,34.96,22.61,34.96,35.87,0,7.23-3.62,11.45-9.04,11.45-4.22,0-7.54-.9-9.95-7.84-3.32-10.85-11.75-25.32-19.29-35.26-2.41-3.32-.9-5.73,3.32-4.22Z"/><path class="cls-1" d="M689.6,880.59c3.32-6.93,2.71-7.84-3.62-7.84-10.55,0-28.03,3.62-35.87,5.43-3.32.6-14.77,3.92-18.08,3.92s-6.93-2.41-10.55-5.73c-18.69,22.91-51.54,50.94-84.09,66.91-4.52,2.11-6.03,0-1.81-3.01,31.04-23.21,74.15-67.52,86.2-96.15,2.71-6.03,1.81-8.74-3.92-13.56-4.22-3.62-6.93-5.43-6.93-6.93,0-1.81,3.92-3.32,7.23-3.32,12.66,0,32.25,8.74,32.25,15.07,0,3.62-5.43,8.44-12.06,17.78-2.41,3.62-5.12,7.54-8.44,12.36,2.11,0,4.22.3,6.03.3,8.14,0,30.44-1.81,42.5-3.62,9.34-1.21,15.67-6.93,20.19-6.93,8.74.3,23.51,10.25,23.51,17.18,0,6.33-11.15,12.06-18.99,24.41-39.18,61.19-91.33,114.53-159.44,147.39-4.22,2.11-6.03-.6-1.81-3.32,56.66-38.28,119.96-101.27,147.69-160.35Z"/><path class="cls-1" d="M556.98,1065.36c10.82,2.57,19.14,5.41,24.97,8.51,3.56,1.89,5.33,3.75,5.33,5.56,0,1.13-1.17,3.48-3.52,7.04-1.97,3.63-3.82,9.12-5.56,16.46-6.51,28.83-9.76,53.87-9.76,75.13,0,9.91.45,18.95,1.36,27.12,10.51-23,15.77-34.54,15.77-34.61.83,2.5,3.55,7.38,8.17,14.64,1.06,1.82,1.59,2.99,1.59,3.52,0,1.21-.38,2.46-1.13,3.75-6.51,14.6-10.93,26.29-13.28,35.07-.45,1.44-.68,3.86-.68,7.26l.45,6.47c0,1.59-1.02,2.61-3.06,3.06-6.58,1.82-12.9,3.06-18.95,3.74h-.45c-1.29,0-2.16-.87-2.61-2.61-3.4-8.47-6.13-19.93-8.17-34.39-1.67-12.1-2.5-23.72-2.5-34.84,0-21.34,2.65-46.76,7.94-76.26,2.72-15.89,4.09-27.42,4.09-34.61ZM610.55,1185.2l21.11-1.82h.45c1.21,0,1.82,1.17,1.82,3.52.76,8.4,4.5,14.26,11.24,17.59,5.83,2.8,14.71,4.2,26.67,4.2,12.63,0,27.42-.98,44.37-2.95.53-.07.87-.11,1.02-.11,1.21,0,1.97,1.02,2.27,3.06.91,6.51,1.36,13.16,1.36,19.97,0,1.51-.19,2.42-.57,2.72-.45.3-1.59.53-3.41.68-14.45,1.74-27.09,2.61-37.9,2.61-18.01,0-31.74-1.7-41.2-5.11-8.02-2.95-14.41-7.68-19.18-14.19-5.37-6.88-8.06-16.95-8.06-30.19ZM617.93,1119.27c.23-13.32.45-20.92.68-22.81.23-2.27,1.32-3.59,3.29-3.97,14.98-2.8,31.81-4.2,50.5-4.2,13.16,0,24.63.45,34.39,1.36,2.5.15,4.05.45,4.65.91.45.3.68,1.02.68,2.16,0,8.85-.15,15.43-.45,19.75-.23,1.89-1.06,2.84-2.5,2.84h-.57c-13.92-.98-26.56-1.48-37.9-1.48-15.28,0-32.87,1.82-52.77,5.45Z"/><path class="cls-1" d="M289.72,248.36c19.59-1.66,37.26-5.18,53-10.55.38-.07.72-.11,1.02-.11.83,0,1.44.53,1.82,1.59,2.88,8.62,4.73,15.21,5.56,19.75.08.38.11.76.11,1.13,0,1.13-.68,1.93-2.04,2.38-18.08,4.92-37.68,8.4-58.79,10.44.38,14.07,1.7,31.97,3.97,53.68,22.77,6.58,45.24,16.57,67.41,29.96.98.61,1.48,1.32,1.48,2.16,0,.45-.19,1.06-.57,1.82-3.48,7.34-7.57,13.85-12.26,19.52-.98.98-1.74,1.48-2.27,1.48-.45,0-1.02-.27-1.7-.79-16.49-12.18-33.71-21.94-51.64-29.28,0,2.35-.08,4.12-.23,5.33-.53,11.27-5.11,19.97-13.73,26.1-8.17,5.82-19.26,8.74-33.25,8.74-15.59,0-27.96-3.4-37.11-10.21-8.25-6.2-12.37-14.19-12.37-23.95,0-11.05,5.52-19.97,16.57-26.78,9.38-5.83,20.84-8.74,34.39-8.74,9.53,0,16.04.23,19.52.68-2.12-22.47-3.44-47.32-3.97-74.56-.15-5.6-.38-16.3-.68-32.12-.3-8.78-1.4-15.81-3.29-21.11,10.14.68,20.05,2.08,29.73,4.2,2.5.61,3.75,1.89,3.75,3.86,0,1.06-.38,2.23-1.13,3.52-1.44,2.42-2.38,6.62-2.84,12.6-.3,4.62-.45,14.38-.45,29.28ZM269.07,345.28c-8.02-1.59-15.17-2.38-21.45-2.38-8.7,0-15.47,1.4-20.31,4.2-4.24,2.42-6.36,5.6-6.36,9.53,0,7.87,7.98,11.8,23.95,11.8,8.32,0,14.71-2.19,19.18-6.58,3.48-3.33,5.22-7.38,5.22-12.14v-1.25l-.23-3.18Z"/><path class="cls-1" d="M214.37,423.71c11.88,0,22.13-.45,30.75-1.36,17.25-2.04,32.19-4.24,44.83-6.58,6.13-1.13,10.33-2.53,12.6-4.2,1.29-1.06,2.68-1.59,4.2-1.59,1.29,0,2.65.61,4.08,1.82,6.2,4.46,11.42,9.69,15.66,15.66,1.06,1.29,1.59,2.69,1.59,4.2,0,2.57-1.63,4.73-4.88,6.47-1.67.98-4.69,3.44-9.08,7.38-3.93,4.16-21.68,22.24-53.22,54.25l.91.91c15.21-8.85,31.1-13.28,47.67-13.28,17.85,0,32,5.52,42.44,16.57,9.08,9.53,13.62,21.6,13.62,36.2,0,20.13-8.93,36.51-26.78,49.14-15.43,10.97-36.58,18.46-63.44,22.47-1.82.38-3.14.57-3.97.57-2.04,0-3.75-1.29-5.11-3.86-3.33-6.28-8.66-12.14-16-17.59,58.1-7.49,87.16-25.42,87.16-53.79,0-9.83-3.56-17.29-10.67-22.36-5.9-4.16-13.5-6.24-22.81-6.24-13.16,0-26.56,3.14-40.17,9.42-11.05,5.15-21.3,11.92-30.75,20.31-9.16,8.1-16.72,15.77-22.7,23.04-1.44,1.74-2.69,2.61-3.75,2.61-.98,0-2-.53-3.06-1.59-5.3-4.69-9.8-9.42-13.5-14.19-1.06-1.36-1.59-2.31-1.59-2.84,0-.83.6-1.74,1.82-2.72,11.88-10.89,26.06-25,42.56-42.33,15.21-16.57,33.1-37.03,53.68-61.4-9.76,2.04-24.55,5.15-44.37,9.31-3.86,1.14-6.89,2.16-9.08,3.06-2.12,1.06-3.75,1.59-4.88,1.59-1.74,0-3.29-1.48-4.65-4.43-2.35-4.09-5.37-12.29-9.08-24.63Z"/><path class="cls-1" d="M226.74,621.07c14.75,1.67,24.44,3.06,29.05,4.2,3.71.91,5.56,2.38,5.56,4.43,0,1.21-.79,3.78-2.38,7.72-1.13,3.18-2.2,12.6-3.18,28.26-2.35,35.86-3.52,65.86-3.52,89.99,0,12.64,1.44,20.65,4.31,24.06,2.8,3.18,8.47,4.77,17.02,4.77,12.33,0,25.91-3.82,40.74-11.46,14.68-7.64,28.26-18.08,40.74-31.32.83,8.32,2.61,15.7,5.33,22.13,1.21,2.72,1.82,4.58,1.82,5.56,0,2.12-1.55,4.54-4.65,7.26-13.09,12.03-28.14,21.07-45.17,27.12-14.22,5.14-28.52,7.72-42.9,7.72-16.27,0-27.73-3.97-34.39-11.92-6.2-7.41-9.31-19.25-9.31-35.52,0-14.45,1.1-47.93,3.29-100.44.23-7.87.34-13.24.34-16.12,0-10.44-.91-19.25-2.72-26.44Z"/><path class="cls-1" d="M299.26,835.88c10.67,6.28,19.22,12.18,25.65,17.7,1.21.98,1.82,2.2,1.82,3.63,0,2.04-1.1,3.52-3.29,4.43-3.63,1.89-7.34,4.62-11.12,8.17-25.5,22.85-46.64,42.97-63.44,60.37-2.04,2.5-3.06,4.2-3.06,5.11,0,1.21,1.02,2.61,3.06,4.2,35.56,25.72,64.38,50.12,86.48,73.2,1.06,1.36,1.59,2.38,1.59,3.06,0,.76-.53,1.67-1.59,2.72-6.2,6.73-11.58,12.1-16.11,16.11-1.44,1.21-2.5,1.82-3.18,1.82s-1.63-.68-2.84-2.04c-25.95-29.13-54.13-55.3-84.55-78.53-8.25-6.28-12.37-12.82-12.37-19.63,0-3.71,1.13-7.3,3.41-10.78,1.44-2.27,4.08-5.48,7.94-9.65,5.98-6.36,16.46-17.4,31.44-33.14,11.58-12.03,20.81-21.79,27.69-29.28,5.75-6.2,9.91-12.03,12.48-17.48Z"/></svg>